<?xml version="1.0" encoding="utf-8"?>
<!-- Generator: Adobe Illustrator 25.2.1, SVG Export Plug-In . SVG Version: 6.00 Build 0)  -->
<svg version="1.1" id="Layer_1" xmlns="http://www.w3.org/2000/svg" xmlns:xlink="http://www.w3.org/1999/xlink" x="0px" y="0px"
	 viewBox="0 0 52 34" style="enable-background:new 0 0 52 34;" xml:space="preserve">
<style type="text/css">
	.st0{enable-background:new    ;}
	.st1{fill:#5E35B1;}
	.st2{fill:none;stroke:#D1C4E9;stroke-width:4;}
</style>
<g class="st0">
	<path class="st1" d="M16.3,14.6c0,4.8-3.5,8.4-8.2,8.4H1.4V6.2h6.7C12.8,6.2,16.3,9.8,16.3,14.6z M12.6,14.6c0-2.9-1.8-4.7-4.5-4.7
		H5.3v9.4h2.9C10.8,19.3,12.6,17.5,12.6,14.6z"/>
	<path class="st1" d="M33.3,20.1l1.7,1.8l-2.8,2.4l-1.8-1.9c-1.2,0.6-2.5,0.9-3.9,0.9c-4.8,0-8.7-3.8-8.7-8.7s3.9-8.7,8.7-8.7
		c4.8,0,8.7,3.8,8.7,8.7C35.2,16.7,34.5,18.6,33.3,20.1z M27.7,19.5l-2.4-2.6l2.8-2.4l2.7,2.9c0.4-0.8,0.7-1.7,0.7-2.7
		c0-3-2.2-5-4.9-5c-2.7,0-4.9,2-4.9,5c0,3,2.2,5,4.9,5C26.9,19.6,27.3,19.5,27.7,19.5z"/>
	<path class="st1" d="M46.8,20.4h-6.2L39.7,23h-4.2l5.7-16.8h4.9L51.8,23h-4.2L46.8,20.4z M45.6,16.8l-2-6.2l-2,6.2H45.6z"/>
</g>
<line class="st2" x1="1" y1="32" x2="52" y2="32"/>
</svg>
