<svg xmlns="http://www.w3.org/2000/svg" width="55" height="48" viewBox="0 0 55 48">
  <g fill="none" fill-rule="evenodd" transform="translate(-2.337 -6)">
    <polygon points="0 60 59.674 60 59.674 0 0 0"/>
    <g fill="#E51148" transform="translate(3.315 6.667)">
      <path d="M35.3618768,46.6664444 C45.1274022,46.6664444 53.0430362,38.7075556 53.0430362,28.8886667 C53.0430362,19.0708889 45.1274022,11.1108889 35.3618768,11.1108889 C25.5974565,11.1108889 17.6807174,19.0708889 17.6807174,28.8886667 C17.6807174,38.7075556 25.5974565,46.6664444 35.3618768,46.6664444"/>
      <path fill-opacity=".5" d="M22.1010072,26.6664444 C29.4254275,26.6664444 35.3618768,20.6964444 35.3618768,13.3331111 C35.3618768,5.96977778 29.4254275,-0.000222222222 22.1010072,-0.000222222222 C14.777692,-0.000222222222 8.84013768,5.96977778 8.84013768,13.3331111 C8.84013768,20.6964444 14.777692,26.6664444 22.1010072,26.6664444"/>
      <path d="M8.84013768,46.6664444 C13.7234529,46.6664444 17.6807174,42.6864444 17.6807174,37.7775556 C17.6807174,32.8686667 13.7234529,28.8886667 8.84013768,28.8886667 C3.95792754,28.8886667 -0.000442028986,32.8686667 -0.000442028986,37.7775556 C-0.000442028986,42.6864444 3.95792754,46.6664444 8.84013768,46.6664444"/>
    </g>
  </g>
</svg>
