<svg xmlns="http://www.w3.org/2000/svg" id="tellstory-logo" width="60.229" height="24" viewBox="0 0 60.229 24">
    <defs>
        <style>
            .cls-1{fill:#6451a2}.cls-2{fill:#d6006d}.cls-3{fill:#4dd0e1}
        </style>
    </defs>
    <g id="dots" transform="translate(44.286 8.571)">
        <path id="dot" d="M253.543 50A3.43 3.43 0 1 1 250 53.429 3.487 3.487 0 0 1 253.543 50z" class="cls-1" transform="translate(-250 -50)"/>
        <path id="dot-2" d="M253.543 100a3.43 3.43 0 1 1-3.543 3.429 3.487 3.487 0 0 1 3.543-3.429z" class="cls-1" transform="translate(-250 -91.429)"/>
        <path id="dot-3" d="M303.543 50A3.43 3.43 0 1 1 300 53.429 3.487 3.487 0 0 1 303.543 50z" class="cls-1" transform="translate(-291.143 -50)"/>
    </g>
    <g id="t" transform="translate(26.571)">
        <path id="dot-4" d="M203.543 0a3.487 3.487 0 0 1 3.543 3.429 3.545 3.545 0 0 1-7.086 0A3.5 3.5 0 0 1 203.543 0z" class="cls-2" transform="translate(-191.143)"/>
        <path id="dot-5" d="M203.543 50A3.43 3.43 0 1 1 200 53.429 3.487 3.487 0 0 1 203.543 50z" class="cls-2" transform="translate(-191.143 -41.429)"/>
        <path id="dot-6" d="M203.543 100a3.43 3.43 0 1 1-3.543 3.429 3.487 3.487 0 0 1 3.543-3.429z" class="cls-2" transform="translate(-191.143 -82.857)"/>
        <path id="dot-7" d="M253.543 0a3.487 3.487 0 0 1 3.543 3.429 3.545 3.545 0 0 1-7.086 0A3.5 3.5 0 0 1 253.543 0z" class="cls-2" transform="translate(-232.286)"/>
        <path id="dot-8" d="M153.543 0a3.487 3.487 0 0 1 3.543 3.429 3.545 3.545 0 0 1-7.086 0A3.5 3.5 0 0 1 153.543 0z" class="cls-2" transform="translate(-150)"/>
    </g>
    <g id="lines">
        <path id="line" d="M3.543 50h26.571a3.43 3.43 0 1 1 0 6.857H3.543a3.43 3.43 0 1 1 0-6.857z" class="cls-3" transform="translate(0 -41.429)"/>
        <path id="line-2" d="M53.543 0h8.764a3.555 3.555 0 0 1 3.634 3.311A3.483 3.483 0 0 1 62.4 6.857h-8.765A3.555 3.555 0 0 1 50 3.546 3.483 3.483 0 0 1 53.543 0z" class="cls-3" transform="translate(-41.143)"/>
        <path id="line-3" d="M53.543 100h17.714a3.43 3.43 0 1 1 0 6.857H53.543a3.43 3.43 0 1 1 0-6.857z" class="cls-3" transform="translate(-41.143 -82.857)"/>
    </g>
</svg>
