<?xml version="1.0" encoding="UTF-8"?>
<svg width="269px" height="118px" viewBox="0 0 269 118" version="1.1" xmlns="http://www.w3.org/2000/svg" xmlns:xlink="http://www.w3.org/1999/xlink">
    <!-- Generator: sketchtool 51.2 (57519) - http://www.bohemiancoding.com/sketch -->
    <title>D7DD0EBC-CE7F-4F4E-BFEA-603B0AEC7B3C</title>
    <desc>Created with sketchtool.</desc>
    <defs></defs>
    <g id="New-Cloud" stroke="none" stroke-width="1" fill="none" fill-rule="evenodd">
        <g id="Verify-your-e-mail" transform="translate(-1131.000000, -401.000000)" fill-rule="nonzero">
            <g id="Sidebar" transform="translate(1010.000000, 0.000000)">
                <g id="Content" transform="translate(115.000000, 269.000000)">
                    <g id="Icon-mail" transform="translate(6.000000, 132.000000)">
                        <path d="M86,2 C83.790861,2 82,3.790861 82,6 L82,112 C82,114.209139 83.790861,116 86,116 L263,116 C265.209139,116 267,114.209139 267,112 L267,6 C267,3.790861 265.209139,2 263,2 L86,2 Z M81.0255194,2.64413891 C82.1038676,1.04880489 83.929453,3.80353306e-16 86,0 L263,0 C266.313708,-6.08718376e-16 269,2.6862915 269,6 L269,112 C269,113.423032 268.504602,114.730358 267.67686,115.758924 L267.990391,116 L267.472241,115.999969 C266.373599,117.227486 264.777015,118 263,118 L86,118 C84.2177285,118 82.6169564,117.222908 81.518022,115.989063 L81.0251852,115.989063 L81.3236684,115.759581 C80.4956089,114.730915 80,113.423335 80,112 L80,6 C80,4.77497985 80.3671225,3.63570576 80.9973475,2.68619767 L80.9426122,2.64411582 L81.0255194,2.64413891 Z M266.411515,3.91047696 C266.115658,3.4284664 265.720511,3.01396402 264.710806,2.69529497 L176.943665,70.1801404 C175.506175,71.2854382 173.504982,71.2854911 172.067433,70.1802694 L83.8212007,2.6449175 C83.322475,2.96945503 82.9006131,3.40217951 82.5888914,3.90981428 L154.696996,59.3482338 L82.9098631,114.540073 C83.3561121,115.08233 83.9423134,115.505078 84.6132195,115.75307 L156.337664,60.6096179 L170.848417,71.7658292 C173.004741,73.4236618 176.006529,73.4235824 178.162765,71.7656358 L192.671612,60.6096692 L264.387697,115.752731 C265.058522,115.504582 265.644617,115.081704 266.090738,114.539342 L194.312167,59.3482338 L266.411515,3.91047696 Z" id="icon-mail" fill="#C3C7CD"></path>
                        <path d="M0,36 L60,36 L60,38 L0,38 L0,36 Z M40,80 L60,80 L60,82 L40,82 L40,80 Z M20,58 L60,58 L60,60 L20,60 L20,58 Z" id="01" fill="#2196F3"></path>
                    </g>
                </g>
            </g>
        </g>
    </g>
</svg>