<?xml version="1.0" encoding="UTF-8"?>
<svg width="135px" height="23px" viewBox="0 0 135 23" version="1.1" xmlns="http://www.w3.org/2000/svg" xmlns:xlink="http://www.w3.org/1999/xlink">
    <!-- Generator: sketchtool 51.2 (57519) - http://www.bohemiancoding.com/sketch -->
    <title>56C403F1-86A8-45D3-AF4A-346036AFF24A</title>
    <desc>Created with sketchtool.</desc>
    <defs></defs>
    <g id="New-Cloud" stroke="none" stroke-width="1" fill="none" fill-rule="evenodd">
        <g id="Log-in---Video" transform="translate(-1373.000000, -772.000000)">
            <g id="Sidebar" transform="translate(1010.000000, 0.000000)">
                <g id="Footer" transform="translate(0.000000, 700.000000)">
                    <g id="Banner" transform="translate(85.000000, 45.000000)">
                        <g id="Stars" transform="translate(278.000000, 27.000000)">
                            <polygon id="icon-favorite" fill="#D9D9D9" points="128 15 130 23 123 18 116 23 118 15 111 9 120 9 123 0 126 9 135 9"></polygon>
                            <path d="M126,20.1428571 L123,18 L116,23 L118,15 L111,9 L120,9 L123,0 L126,9 L126,20.1428571 Z" id="Combined-Shape" fill="#F0C61C"></path>
                            <polygon id="Combined-Shape" fill="#F0C61C" points="100 15 102 23 95 18 88 23 90 15 83 9 92 9 95 0 98 9 107 9"></polygon>
                            <polygon id="icon-favorite" fill="#F0C61C" points="72 15 74 23 67 18 60 23 62 15 55 9 64 9 67 0 70 9 79 9"></polygon>
                            <polygon id="icon-favorite" fill="#F0C61C" points="45 15 47 23 40 18 33 23 35 15 28 9 37 9 40 0 43 9 52 9"></polygon>
                            <polygon id="icon-favorite" fill="#F0C61C" points="17 15 19 23 12 18 5 23 7 15 -1.13686838e-13 9 9 9 12 0 15 9 24 9"></polygon>
                        </g>
                    </g>
                </g>
            </g>
        </g>
    </g>
</svg>