<svg xmlns="http://www.w3.org/2000/svg" width="20" height="20" viewBox="0 0 20 20">
  <path fill="#FFF" fill-rule="evenodd" d="M2,0 L18,0 C19.1045695,-2.02906125e-16 20,0.8954305 20,2 L20,18 C20,19.1045695 19.1045695,20 18,20 L2,20 C0.8954305,20 1.3527075e-16,19.1045695 0,18 L0,2 C-1.3527075e-16,0.8954305 0.8954305,2.02906125e-16 2,0 Z M4.00344608,16 L6.99166044,16 L6.99166044,7.01278728 L4.00344608,7.01278728 L4.00344608,16 Z M8.58536511,7.23092021 L8.58536511,15.9998305 L11.2809833,15.9998305 L11.2809833,11.661176 C11.2809833,10.5174424 11.495446,9.41052047 12.8992018,9.41052047 C14.2826134,9.41052047 14.3012623,10.7186231 14.3012623,11.7365118 L14.3012623,15.9998305 L16.9977282,15.9998305 L16.9977282,11.1903276 C16.9977282,8.82838057 16.4933594,7.01261774 13.7621387,7.01261774 C12.4499321,7.01261774 11.569194,7.74029262 11.2089306,8.42858744 L11.1716327,8.42858744 L11.1716327,7.23092021 L8.58536511,7.23092021 Z M6.97743354,4.5 C6.97743354,3.67280607 6.30544004,3 5.47743354,3 C4.64698934,3 3.97662097,3.67280607 3.97662097,4.5 C3.97662097,5.3280065 4.64698934,6 5.47743354,6 C6.30544004,6 6.97743354,5.3280065 6.97743354,4.5 Z"/>
</svg>
