<svg xmlns="http://www.w3.org/2000/svg" width="18" height="18" viewBox="0 0 18 18">
  <path fill="#FFF" fill-rule="evenodd" d="M9.16585839,10.8 L14.3642095,10.8 C14.1547042,12.1242857 12.7929195,14.6828571 9.16585839,14.6828571 C6.03637245,14.6828571 3.48302619,12.1371429 3.48302619,9 C3.48302619,5.86285714 6.03637245,3.31714286 9.16585839,3.31714286 C10.9466537,3.31714286 12.1382153,4.06285714 12.8191077,4.70571429 L15.3069835,2.35285714 C13.7095053,0.887142857 11.6406402,0 9.16585839,0 C4.09844811,0 0,4.02428571 0,9 C0,13.9757143 4.09844811,18 9.16585839,18 C14.4558681,18 17.9650824,14.5547748 17.9650824,9.41191771 C17.9650824,8.82048913 18.0436469,8.45917115 17.9650824,8.00917115 L9.16585839,8.00917115 L9.16585839,10.8 Z"/>
</svg>
