<svg xmlns="http://www.w3.org/2000/svg" width="20" height="21" viewBox="0 0 20 21">
  <defs>
    <filter id="icon-linkedin-footer-a">
      <feColorMatrix in="SourceGraphic" values="0 0 0 0 1.000000 0 0 0 0 1.000000 0 0 0 0 1.000000 0 0 0 1.000000 0"/>
    </filter>
  </defs>
  <g fill="none" fill-rule="evenodd" filter="url(#icon-linkedin-footer-a)" transform="translate(-1260 -650)">
    <g transform="translate(1260 650)">
      <polygon fill="#005AFF" points="0 20.784 5 20.784 5 6.784 0 6.784"/>
      <path fill="#005AFF" d="M2.30880556 1.09690035e-13C.862416667 1.09690035e-13-.269527778 1.395625.0565833333 2.96770833.24575 3.88091667.955194444 4.61475 1.82797222 4.79908333 3.31602778 5.11291667 4.61769444 3.92991667 4.61769444 2.42433333 4.61769444 1.087625 3.58575 1.09690035e-13 2.30880556 1.09690035e-13M19.7933333 11.1847458C19.4827778 8.5731625 18.2386111 6.9281625 14.8763889 6.9281625 12.4897222 6.9281625 11.5411111 7.31899583 10.9938889 8.41274583L10.9938889 6.9281625 7.25583333 6.9281625 7.25583333 20.7843708 11.1025 20.7843708 11.1025 13.5312042C11.1025 11.7205375 11.4294444 10.3526208 13.5611111 10.3526208 15.6630556 10.3526208 15.8316667 12.0358292 15.8316667 13.6484542L15.8316667 20.7843708 19.7933333 20.7843708C19.7933333 20.7843708 19.8666667 11.7949125 19.7933333 11.1847458"/>
    </g>
  </g>
</svg>
