<svg xmlns="http://www.w3.org/2000/svg" xmlns:xlink="http://www.w3.org/1999/xlink" width="104" height="104" viewBox="0 0 104 104">
  <defs>
    <path id="logo-a" d="M7.54524352,7.47397564 C2.514619,12.4569034 0,18.6028563 0,25.9104478 L0,25.9104478 C0,33.2188713 2.514619,39.3637149 7.54524352,44.3466426 L7.54524352,44.3466426 C12.5747588,49.3295702 18.696586,51.8208955 25.9104478,51.8208955 L25.9104478,51.8208955 C33.1232003,51.8208955 39.2450275,49.3295702 44.275652,44.3466426 L44.275652,44.3466426 C49.3051673,39.3637149 51.8208955,33.2188713 51.8208955,25.9104478 L51.8208955,25.9104478 C51.8208955,18.6028563 49.3051673,12.4569034 44.275652,7.47397564 L44.275652,7.47397564 C39.2450275,2.49132522 33.1232003,0 25.9104478,0 L25.9104478,0 C18.696586,0 12.5747588,2.49132522 7.54524352,7.47397564 M15.5533122,36.5878728 C12.7771928,33.8361564 11.3889945,30.2769223 11.3889945,25.9104478 L11.3889945,25.9104478 C11.3889945,21.5448053 12.7771928,17.9858484 15.5533122,15.2327455 L15.5533122,15.2327455 C18.329709,12.4813064 21.7819027,11.1044776 25.9104478,11.1044776 L25.9104478,11.1044776 C30.0392702,11.1044776 33.4914638,12.4813064 36.2675832,15.2327455 L36.2675832,15.2327455 C39.0437026,17.9858484 40.431901,21.5448053 40.431901,25.9104478 L40.431901,25.9104478 C40.431901,30.2769223 39.0437026,33.8361564 36.2675832,36.5878728 L36.2675832,36.5878728 C33.4914638,39.3406985 30.0392702,40.7164179 25.9104478,40.7164179 L25.9104478,40.7164179 C21.7819027,40.7164179 18.329709,39.3406985 15.5533122,36.5878728"/>
    <linearGradient id="logo-b" x1="10.341%" x2="115.85%" y1="18.468%" y2="102.356%">
      <stop offset="0%" stop-color="#6451A0"/>
      <stop offset="100%" stop-color="#D4006D"/>
    </linearGradient>
    <linearGradient id="logo-d" x1="30%" x2="57.822%" y1="-12.718%" y2="74.525%">
      <stop offset="0%" stop-color="#6451A0"/>
      <stop offset="100%" stop-color="#D4006D"/>
    </linearGradient>
  </defs>
  <g fill="none" fill-rule="evenodd">
    <rect width="104" height="104"/>
    <g transform="translate(19 27)">
      <mask id="logo-c" fill="#fff">
        <use xlink:href="#logo-a"/>
      </mask>
      <path fill="url(#logo-b)" fill-rule="nonzero" d="M7.54524352,7.47397564 C2.514619,12.4569034 0,18.6028563 0,25.9104478 L0,25.9104478 C0,33.2188713 2.514619,39.3637149 7.54524352,44.3466426 L7.54524352,44.3466426 C12.5747588,49.3295702 18.696586,51.8208955 25.9104478,51.8208955 L25.9104478,51.8208955 C33.1232003,51.8208955 39.2450275,49.3295702 44.275652,44.3466426 L44.275652,44.3466426 C49.3051673,39.3637149 51.8208955,33.2188713 51.8208955,25.9104478 L51.8208955,25.9104478 C51.8208955,18.6028563 49.3051673,12.4569034 44.275652,7.47397564 L44.275652,7.47397564 C39.2450275,2.49132522 33.1232003,0 25.9104478,0 L25.9104478,0 C18.696586,0 12.5747588,2.49132522 7.54524352,7.47397564 M15.5533122,36.5878728 C12.7771928,33.8361564 11.3889945,30.2769223 11.3889945,25.9104478 L11.3889945,25.9104478 C11.3889945,21.5448053 12.7771928,17.9858484 15.5533122,15.2327455 L15.5533122,15.2327455 C18.329709,12.4813064 21.7819027,11.1044776 25.9104478,11.1044776 L25.9104478,11.1044776 C30.0392702,11.1044776 33.4914638,12.4813064 36.2675832,15.2327455 L36.2675832,15.2327455 C39.0437026,17.9858484 40.431901,21.5448053 40.431901,25.9104478 L40.431901,25.9104478 C40.431901,30.2769223 39.0437026,33.8361564 36.2675832,36.5878728 L36.2675832,36.5878728 C33.4914638,39.3406985 30.0392702,40.7164179 25.9104478,40.7164179 L25.9104478,40.7164179 C21.7819027,40.7164179 18.329709,39.3406985 15.5533122,36.5878728" mask="url(#logo-c)"/>
      <polygon fill="url(#logo-d)" fill-rule="nonzero" points="49.97 49.97 62 49.97 62 0 49.97 0"/>
    </g>
  </g>
</svg>
