<?xml version="1.0" encoding="UTF-8"?>
<svg width="114px" height="16px" viewBox="0 0 114 16" version="1.1" xmlns="http://www.w3.org/2000/svg" xmlns:xlink="http://www.w3.org/1999/xlink">
    <!-- Generator: sketchtool 51.2 (57519) - http://www.bohemiancoding.com/sketch -->
    <title>EB0B92D7-5800-4F53-8463-FE5D07132E84</title>
    <desc>Created with sketchtool.</desc>
    <defs></defs>
    <g id="New-Cloud" stroke="none" stroke-width="1" fill="none" fill-rule="evenodd">
        <g id="Log-in---Icons" transform="translate(-60.000000, -60.000000)" fill="#FFFFFF" fill-rule="nonzero">
            <g id="Content">
                <g id="logo" transform="translate(60.000000, 60.000000)">
                    <path d="M12.919,3.496 L12.919,15.664 L10.805,15.664 L10.805,13.57 C9.837,15.052 8.277,15.98 6.202,15.98 C2.825,15.98 0.04,13.175 0.04,9.58 C0.04,5.985 2.805,3.18 6.202,3.18 C8.277,3.18 9.837,4.109 10.805,5.59 L10.805,3.496 L12.919,3.496 Z M10.805,9.56 C10.805,7.072 8.928,5.215 6.479,5.215 C4.049,5.215 2.173,7.091 2.173,9.56 C2.173,12.05 4.049,13.906 6.479,13.906 C8.929,13.926 10.805,12.049 10.805,9.56 Z M15.901,0.711 L18.015,0.079 L18.015,3.477 L21.255,3.477 L21.255,5.53 L18.015,5.53 L18.015,12.127 C18.015,13.984 19.081,13.846 21.255,13.767 L21.255,15.663 C17.6,16.157 15.901,15.169 15.901,12.127 L15.901,0.711 Z M35.536,3.496 L35.536,15.664 L33.422,15.664 L33.422,13.57 C32.454,15.052 30.894,15.98 28.82,15.98 C25.442,15.98 22.657,13.175 22.657,9.58 C22.657,5.985 25.422,3.18 28.82,3.18 C30.894,3.18 32.454,4.109 33.422,5.59 L33.422,3.496 L35.536,3.496 Z M33.422,9.56 C33.422,7.072 31.546,5.215 29.096,5.215 C26.666,5.215 24.79,7.091 24.79,9.56 C24.79,12.05 26.667,13.906 29.096,13.906 C31.546,13.926 33.422,12.049 33.422,9.56 Z M38.005,9.56 C38.005,5.965 40.731,3.16 44.405,3.16 C46.815,3.16 48.849,4.425 49.778,6.34 L48,7.369 C47.388,6.085 46.025,5.236 44.405,5.236 C41.975,5.236 40.119,7.112 40.119,9.561 C40.119,11.991 41.975,13.868 44.405,13.868 C46.065,13.868 47.407,13.018 48.079,11.754 L49.877,12.801 C48.849,14.697 46.795,15.961 44.405,15.961 C40.731,15.961 38.005,13.176 38.005,9.561 L38.005,9.56 Z M51.437,9.56 C51.437,5.965 54.163,3.16 57.837,3.16 C60.247,3.16 62.281,4.425 63.21,6.34 L61.432,7.368 C60.82,6.084 59.457,5.235 57.837,5.235 C55.407,5.235 53.551,7.111 53.551,9.56 C53.551,11.99 55.407,13.867 57.837,13.867 C59.497,13.867 60.84,13.017 61.511,11.753 L63.31,12.8 C62.282,14.696 60.228,15.96 57.838,15.96 C54.164,15.96 51.438,13.175 51.438,9.56 L51.437,9.56 Z M77.886,3.496 L77.886,15.664 L75.773,15.664 L75.773,13.57 C74.805,15.052 73.244,15.98 71.17,15.98 C67.793,15.98 65.007,13.175 65.007,9.58 C65.007,5.985 67.773,3.18 71.17,3.18 C73.244,3.18 74.805,4.109 75.773,5.59 L75.773,3.496 L77.886,3.496 Z M75.773,9.56 C75.773,7.072 73.896,5.215 71.447,5.215 C69.017,5.215 67.141,7.091 67.141,9.56 C67.141,12.05 69.017,13.906 71.447,13.906 C73.897,13.926 75.773,12.049 75.773,9.56 Z M98.588,8.099 L98.588,15.664 L96.474,15.664 L96.474,8.178 C96.474,6.262 95.407,5.215 93.807,5.215 C92.109,5.215 90.805,6.281 90.805,8.909 L90.805,15.664 L88.69,15.664 L88.69,8.178 C88.69,6.262 87.683,5.215 86.103,5.215 C84.463,5.215 82.982,6.281 82.982,8.909 L82.982,15.664 L80.868,15.664 L80.868,3.496 L82.982,3.496 L82.982,5.136 C83.851,3.773 85.115,3.18 86.616,3.18 C88.276,3.18 89.48,3.93 90.192,5.254 C91.041,3.872 92.424,3.18 94.004,3.18 C96.71,3.18 98.587,5.057 98.587,8.099 L98.588,8.099 Z M113.719,3.496 L113.719,15.664 L111.605,15.664 L111.605,13.57 C110.637,15.052 109.077,15.98 107.002,15.98 C103.625,15.98 100.84,13.175 100.84,9.58 C100.84,5.985 103.605,3.18 107.002,3.18 C109.077,3.18 110.637,4.109 111.605,5.59 L111.605,3.496 L113.719,3.496 Z M111.585,9.58 C111.585,7.091 109.709,5.235 107.259,5.235 C104.829,5.235 102.953,7.111 102.953,9.58 C102.953,12.07 104.83,13.926 107.259,13.926 C109.729,13.926 111.585,12.049 111.585,9.58 Z" id="Shape"></path>
                </g>
            </g>
        </g>
    </g>
</svg>