<svg xmlns="http://www.w3.org/2000/svg" width="58" height="24" viewBox="0 0 58 24">
  <defs>
    <linearGradient id="one-a" x1="9.9%" x2="114.9%" y1="18.1%" y2="101.6%">
      <stop offset="0%" stop-color="#64519D"/>
      <stop offset="100%" stop-color="#D30B6C"/>
    </linearGradient>
    <linearGradient id="one-b" x1="-60.7%" x2="60.5%" y1="-29.3%" y2="57.5%">
      <stop offset="0%" stop-color="#64519D"/>
      <stop offset="100%" stop-color="#D30B6C"/>
    </linearGradient>
    <linearGradient id="one-c" x1="-189.2%" x2="-15.8%" y1="-69.3%" y2="17.4%">
      <stop offset="0%" stop-color="#64519D"/>
      <stop offset="100%" stop-color="#D30B6C"/>
    </linearGradient>
  </defs>
  <g fill="none">
    <path fill="url(#one-a)" d="M19.8462201,19.7092363 C15.9644475,23.6564328 9.8324294,24.3056159 5.2102077,21.2587182 C0.587986007,18.2118206 -1.23257801,12.3204174 0.864852405,7.19700995 C2.96228282,2.07360247 8.39149844,-0.849871996 13.823403,0.219207937 C19.2553075,1.28828787 23.171742,6.05112586 23.1712201,11.5872363 C23.229718,14.6371338 22.0266363,17.5759097 19.8462201,19.7092363 L19.8462201,19.7092363 Z M7.19222009,16.2912363 C9.75086319,18.7164139 13.759577,18.7164139 16.3182201,16.2912363 C18.7643236,13.632231 18.7643236,9.54224147 16.3182201,6.88323625 C13.759577,4.45805857 9.75086319,4.45805857 7.19222009,6.88323625 C4.74611654,9.54224147 4.74611654,13.632231 7.19222009,16.2912363 L7.19222009,16.2912363 Z"/>
    <polygon fill="url(#one-b)" points="37.47 .611 37.47 14.292 27.749 .611 22.731 .611 22.731 22.563 27.749 22.563 27.749 8.88 37.47 22.563 42.488 22.563 42.488 .611"/>
    <polygon fill="url(#one-c)" points="48.954 17.733 57.735 17.733 57.735 22.562 43.935 22.562 43.935 .611 57.576 .611 57.576 5.44 48.952 5.44 48.952 9.078 56.792 9.078 56.792 13.845 48.952 13.845"/>
  </g>
</svg>
