<svg xmlns="http://www.w3.org/2000/svg" width="182" height="34" viewBox="0 0 182 34">
  <g fill="none">
    <path fill="#86BC25" d="M171.8,29 C171.8,26.3 174,24.2 176.6,24.2 C179.3,24.2 181.4,26.4 181.4,29 C181.4,31.6 179.2,33.8 176.6,33.8 C174,33.8 171.8,31.7 171.8,29"/>
    <path fill="#000" d="M27.6,16.1 C27.6,21.7 26.2,25.9 23.2,28.9 C20.2,31.9 16,33.4 10.6,33.4 L0,33.4 L0,0.1 L11.2,0.1 C16.5,0.1 20.5,1.4 23.3,4.2 C26.2,6.9 27.6,10.9 27.6,16.1 M18.4,16.4 C18.4,13.3 17.8,11.1 16.6,9.6 C15.5,8.2 13.6,7.4 11.2,7.4 L8.8,7.4 L8.8,26 L10.8,26 C13.5,26 15.4,25.2 16.7,23.6 C17.8,22 18.4,19.6 18.4,16.4"/>
    <polygon fill="#000" points="56.7 0 65 0 65 33.4 56.7 33.4"/>
    <path fill="#000" d="M92.4,20.9 C92.4,24.9 91.4,28.1 89.2,30.4 C87,32.7 84,33.8 80.2,33.8 C76.5,33.8 73.6,32.7 71.4,30.3 C69.2,27.9 68.1,24.8 68.1,20.9 C68.1,16.9 69.1,13.7 71.3,11.5 C73.5,9.2 76.5,8.1 80.3,8.1 C82.7,8.1 84.8,8.6 86.6,9.6 C88.5,10.6 89.8,12.1 90.8,14 C92,16.1 92.4,18.3 92.4,20.9 M76.7,20.9 C76.7,23.1 77,24.6 77.5,25.7 C78,26.8 78.9,27.3 80.3,27.3 C81.7,27.3 82.5,26.8 83.1,25.7 C83.6,24.6 83.9,22.9 83.9,20.9 C83.9,18.7 83.6,17.2 83.1,16.1 C82.6,15.1 81.7,14.5 80.3,14.5 C79.1,14.5 78.1,15 77.5,16.1 C77,17.2 76.7,18.7 76.7,20.9"/>
    <polygon fill="#000" points="95.8 8.5 104.1 8.5 104.1 33.3 95.8 33.3"/>
    <polygon fill="#000" points="95.8 0 104.1 0 104.1 5.6 95.8 5.6"/>
    <path fill="#000" d="M121 27C122.1 27 123.5 26.7 125 26.2L125 32.5C123.9 33 122.8 33.3 121.8 33.5 120.8 33.7 119.6 33.8 118.2 33.8 115.4 33.8 113.4 33.1 112.1 31.6 110.9 30.2 110.2 28 110.2 25.1L110.2 14.9 107.3 14.9 107.3 8.5 110.2 8.5 110.2 2.3 118.6.9 118.6 8.7 124 8.7 124 15 118.6 15 118.6 24.6C118.8 26.3 119.5 27 121 27M140.4 27C141.5 27 142.9 26.7 144.4 26.2L144.4 32.5C143.3 33 142.2 33.3 141.2 33.5 140.2 33.7 139 33.8 137.6 33.8 134.8 33.8 132.8 33.1 131.5 31.6 130.3 30.2 129.6 28 129.6 25.1L129.6 14.9 126.7 14.9 126.7 8.5 129.6 8.5 129.6 2.2 138 .9 138 8.7 143.4 8.7 143.4 15 138 15 138 24.6C138.1 26.3 138.9 27 140.4 27M166.8 11C164.8 9 162 8.1 158.4 8.1 154.6 8.1 151.6 9.2 149.5 11.5 147.4 13.8 146.4 17 146.4 21.2 146.4 25.2 147.5 28.4 149.7 30.6 152 32.8 155.1 33.9 159.1 33.9 161.1 33.9 162.7 33.8 164.1 33.5 165.4 33.2 166.9 32.8 168.1 32.1L166.9 26.5C166 26.9 165 27.2 164.2 27.4 163 27.7 161.6 27.8 160.2 27.8 158.6 27.8 157.3 27.4 156.4 26.7 155.5 25.9 155 24.8 155 23.4L169.9 23.4 169.9 19.5C169.8 15.8 168.7 13 166.8 11L166.8 11zM155 17.9C155.1 16.6 155.5 15.5 156.1 14.9 156.7 14.3 157.5 14 158.6 14 159.6 14 160.6 14.3 161.2 15 161.8 15.7 162.1 16.6 162.2 17.9L155 17.9zM50.5 11C48.4 9 45.7 8.1 42.1 8.1 38.3 8.1 35.3 9.2 33.2 11.5 31.1 13.8 30.1 17 30.1 21.2 30.1 25.2 31.2 28.4 33.4 30.6 35.7 32.8 38.8 33.9 42.8 33.9 44.8 33.9 46.4 33.8 47.8 33.5 49.1 33.2 50.6 32.8 51.8 32.1L50.6 26.4C49.7 26.8 48.7 27.1 47.9 27.3 46.7 27.6 45.3 27.7 43.9 27.7 42.3 27.7 41 27.3 40.1 26.6 39.2 25.8 38.7 24.7 38.7 23.3L53.6 23.3 53.6 19.5C53.5 15.8 52.4 13 50.5 11L50.5 11zM38.6 17.9C38.7 16.6 39.1 15.5 39.7 14.9 40.3 14.3 41.1 14 42.2 14 43.3 14 44.2 14.3 44.8 15 45.4 15.7 45.7 16.6 45.8 17.9L38.6 17.9z"/>
  </g>
</svg>
