<?xml version="1.0" encoding="UTF-8"?>
<svg width="32px" height="32px" viewBox="0 0 32 32" version="1.1" xmlns="http://www.w3.org/2000/svg" xmlns:xlink="http://www.w3.org/1999/xlink">
    <!-- Generator: Sketch 51.3 (57544) - http://www.bohemiancoding.com/sketch -->
    <title>dqm</title>
    <desc>Created with Sketch.</desc>
    <defs></defs>
    <g id="dqm" stroke="none" stroke-width="1" fill="none" fill-rule="evenodd">
        <g id="icon-data-quality" transform="translate(0.000000, 3.000000)" fill="#FFFFFF" fill-rule="nonzero">
            <path d="M29.6738703,22.0039293 L2.32612967,22.0039293 C1.06876228,22.0039293 0,20.9980354 0,19.740668 L0,2.2632613 C0,1.00589391 1.06876228,0 2.32612967,0 L29.6738703,0 C30.9941061,0 32,1.00589391 32,2.2632613 L32,19.740668 C32,20.9980354 30.9941061,22.0039293 29.6738703,22.0039293 Z M2.70333988,19.4263261 L29.3595285,19.4263261 L29.3595285,2.57760314 L2.70333988,2.57760314 L2.70333988,19.4263261 Z M23.827112,25.9017682 L8.17288802,25.9017682 C7.48133595,25.9017682 6.85265226,25.3359528 6.85265226,24.5815324 C6.85265226,23.8899804 7.48133595,23.2612967 8.17288802,23.2612967 L23.827112,23.2612967 C24.5815324,23.2612967 25.1473477,23.8899804 25.1473477,24.5815324 C25.1473477,25.3359528 24.5815324,25.9017682 23.827112,25.9017682 Z M24.5815324,4.84086444 C23.5127701,4.84086444 22.6954813,5.59528487 22.632613,6.60117878 L18.7347741,9.74459725 C18.6719057,9.74459725 18.546169,9.68172888 18.4833006,9.68172888 C18.2318271,9.68172888 17.9803536,9.74459725 17.7288802,9.87033399 L14.7740668,8.55009823 C14.5225933,7.85854617 13.7681729,7.29273084 12.9508841,7.29273084 C11.8821218,7.29273084 11.064833,8.17288802 11.064833,9.24165029 C11.064833,9.24165029 11.064833,9.30451866 11.064833,9.36738703 L7.41846758,13.3909627 C6.41257367,13.3909627 5.5324165,14.2711198 5.5324165,15.3398821 C5.5324165,16.4086444 6.41257367,17.2259332 7.48133595,17.2259332 C8.55009823,17.2259332 9.36738703,16.4086444 9.36738703,15.3398821 C9.36738703,15.2770138 9.36738703,15.2141454 9.36738703,15.151277 L13.0137525,11.1277014 C13.2652259,11.1277014 13.5166994,11.064833 13.7681729,11.0019646 L16.7229862,12.259332 C16.9744597,13.0137525 17.6660118,13.5795678 18.4833006,13.5795678 C19.4891945,13.5795678 20.3064833,12.8251473 20.43222,11.8192534 L24.3300589,8.67583497 C24.4557957,8.67583497 24.518664,8.73870334 24.5815324,8.73870334 C25.6502947,8.73870334 26.5304519,7.85854617 26.5304519,6.78978389 C26.5304519,5.72102161 25.6502947,4.84086444 24.5815324,4.84086444 Z" id="Shape"></path>
        </g>
    </g>
</svg>