<?xml version="1.0" encoding="UTF-8"?>
<svg width="196px" height="27px" viewBox="0 0 196 27" version="1.1" xmlns="http://www.w3.org/2000/svg" xmlns:xlink="http://www.w3.org/1999/xlink">
    <!-- Generator: sketchtool 51.2 (57519) - http://www.bohemiancoding.com/sketch -->
    <title>8420FB0D-A460-46EF-A157-9D933CEF4AD2</title>
    <desc>Created with sketchtool.</desc>
    <defs></defs>
    <g id="New-Cloud" stroke="none" stroke-width="1" fill="none" fill-rule="evenodd">
        <g id="Log-in---Deloitte" transform="translate(-375.000000, -198.000000)" fill="#FFFFFF" fill-rule="nonzero">
            <g id="Content">
                <g id="Deloitte" transform="translate(138.000000, 195.000000)">
                    <path d="M259.205368,8.80208792 L259.205368,29.46343 L255.560508,29.46343 L255.560508,25.9078045 C253.891528,28.42425 251.201849,30 247.624231,30 C241.801766,30 237,25.237092 237,19.1327589 C237,13.0284259 241.767283,8.26551789 247.624231,8.26551789 C251.201849,8.26551789 253.891528,9.84296585 255.560508,12.3577134 L255.560508,8.80208792 L259.205368,8.80208792 Z M255.560508,19.0987988 C255.560508,14.8741589 252.324273,11.7209609 248.101822,11.7209609 C243.91213,11.7209609 240.677619,14.906421 240.677619,19.0987988 C240.677619,23.3268348 243.91213,26.4783347 248.101822,26.4783347 C252.325997,26.5122948 255.560508,23.3251368 255.560508,19.0987988 Z M264.346792,4.07314005 L267.991652,3 L267.991652,8.7698258 L273.577908,8.7698258 L273.577908,12.255833 L267.991652,12.255833 L267.991652,23.4575813 C267.991652,26.6107792 269.829599,26.3764543 273.577908,26.2423118 L273.577908,29.461732 C267.276128,30.3005471 264.346792,28.6229168 264.346792,23.4575813 L264.346792,4.07314005 Z M298.200538,8.80208792 L298.200538,29.46343 L294.555679,29.46343 L294.555679,25.9078045 C292.886699,28.42425 290.19702,30 286.621126,30 C280.796937,30 275.995171,25.237092 275.995171,19.1327589 C275.995171,13.0284259 280.762454,8.26551789 286.621126,8.26551789 C290.19702,8.26551789 292.886699,9.84296585 294.555679,12.3577134 L294.555679,8.80208792 L298.200538,8.80208792 Z M294.555679,19.0987988 C294.555679,14.8741589 291.321167,11.7209609 287.096992,11.7209609 C282.9073,11.7209609 279.672789,14.906421 279.672789,19.0987988 C279.672789,23.3268348 282.909025,26.4783347 287.096992,26.4783347 C291.321167,26.5122948 294.555679,23.3251368 294.555679,19.0987988 Z M302.457472,19.0987988 C302.457472,12.9944658 307.157514,8.23155776 313.492052,8.23155776 C317.647261,8.23155776 321.154189,10.3795359 322.755927,13.6312182 L319.690383,15.3784668 C318.635201,13.1982265 316.28518,11.7566191 313.492052,11.7566191 C309.30236,11.7566191 306.102332,14.9420791 306.102332,19.1004968 C306.102332,23.2266524 309.30236,26.4138105 313.492052,26.4138105 C316.354146,26.4138105 318.66796,24.970505 319.826591,22.8242249 L322.926618,24.6020376 C321.154189,27.8214578 317.612778,29.9677379 313.492052,29.9677379 C307.157514,29.9677379 302.457472,25.23879 302.457472,19.1004968 L302.457472,19.0987988 Z M325.616297,19.0987988 C325.616297,12.9944658 330.316338,8.23155776 336.650877,8.23155776 C340.806086,8.23155776 344.313013,10.3795359 345.914751,13.6312182 L342.849207,15.3767688 C341.794025,13.1965285 339.444005,11.7549211 336.650877,11.7549211 C332.461185,11.7549211 329.261156,14.9403811 329.261156,19.0987988 C329.261156,23.2249544 332.461185,26.4121124 336.650877,26.4121124 C339.512971,26.4121124 341.828508,24.968807 342.985415,22.8225269 L346.087166,24.6003396 C344.314737,27.8197598 340.773327,29.9660399 336.652601,29.9660399 C330.318062,29.9660399 325.618021,25.237092 325.618021,19.0987988 L325.616297,19.0987988 Z M371.218422,8.80208792 L371.218422,29.46343 L367.575287,29.46343 L367.575287,25.9078045 C365.906306,28.42425 363.214903,30 359.63901,30 C353.816545,30 349.013054,25.237092 349.013054,19.1327589 C349.013054,13.0284259 353.782062,8.26551789 359.63901,8.26551789 C363.214903,8.26551789 365.906306,9.84296585 367.575287,12.3577134 L367.575287,8.80208792 L371.218422,8.80208792 Z M367.575287,19.0987988 C367.575287,14.8741589 364.339051,11.7209609 360.1166,11.7209609 C355.926908,11.7209609 352.692397,14.906421 352.692397,19.0987988 C352.692397,23.3268348 355.926908,26.4783347 360.1166,26.4783347 C364.340775,26.5122948 367.575287,23.3251368 367.575287,19.0987988 Z M406.911839,16.6180114 L406.911839,29.46343 L403.26698,29.46343 L403.26698,16.752154 C403.26698,13.4987737 401.427308,11.7209609 398.668664,11.7209609 C395.741052,11.7209609 393.492756,13.5310358 393.492756,17.9933966 L393.492756,29.46343 L389.846172,29.46343 L389.846172,16.752154 C389.846172,13.4987737 388.10995,11.7209609 385.385788,11.7209609 C382.558177,11.7209609 380.004706,13.5310358 380.004706,17.9933966 L380.004706,29.46343 L376.359847,29.46343 L376.359847,8.80208792 L380.004706,8.80208792 L380.004706,11.5868184 C381.502995,9.2724357 383.682325,8.26551789 386.270279,8.26551789 C389.132373,8.26551789 391.208253,9.5390227 392.43585,11.7871832 C393.899656,9.44053833 396.28416,8.26551789 399.008322,8.26551789 C403.67388,8.26551789 406.910115,11.4526759 406.910115,16.6180114 L406.911839,16.6180114 Z M433,8.80208792 L433,29.46343 L429.35514,29.46343 L429.35514,25.9078045 C427.68616,28.42425 424.996481,30 421.418864,30 C415.596399,30 410.794632,25.237092 410.794632,19.1327589 C410.794632,13.0284259 415.561916,8.26551789 421.418864,8.26551789 C424.996481,8.26551789 427.68616,9.84296585 429.35514,12.3577134 L429.35514,8.80208792 L433,8.80208792 Z M429.320657,19.1327589 C429.320657,14.906421 426.086146,11.7549211 421.861971,11.7549211 C417.672279,11.7549211 414.437768,14.9403811 414.437768,19.1327589 C414.437768,23.3607949 417.674003,26.5122948 421.861971,26.5122948 C426.120629,26.5122948 429.320657,23.3251368 429.320657,19.1327589 Z" id="Shape"></path>
                </g>
            </g>
        </g>
    </g>
</svg>