<svg width="111" height="87" viewBox="0 0 111 87" fill="none" xmlns="http://www.w3.org/2000/svg">
<path fill-rule="evenodd" clip-rule="evenodd" d="M85.2714 31.365V1.67137H85.2761H111V85.3285H85.2761V55.6349C80.0206 73.7544 63.3088 87 43.4969 87C19.4722 87 0 67.5208 0 43.4975C0 19.4745 19.4722 0 43.4922 0C63.3044 0 80.0206 13.2453 85.2714 31.365ZM64.1978 43.4975C64.1978 55.1582 54.7463 64.6109 43.0873 64.6109C31.428 64.6109 21.9764 55.1582 21.9764 43.4975C21.9764 31.8371 31.428 22.3843 43.0873 22.3843C54.7463 22.3843 64.1978 31.8371 64.1978 43.4975Z" fill="black"/>
<path fill-rule="evenodd" clip-rule="evenodd" d="M85.2714 31.365V1.67137H85.2761H111V85.3285H85.2761V55.6349C80.0206 73.7544 63.3088 87 43.4969 87C19.4722 87 0 67.5208 0 43.4975C0 19.4745 19.4722 0 43.4922 0C63.3044 0 80.0206 13.2453 85.2714 31.365ZM64.1978 43.4975C64.1978 55.1582 54.7463 64.6109 43.0873 64.6109C31.428 64.6109 21.9764 55.1582 21.9764 43.4975C21.9764 31.8371 31.428 22.3843 43.0873 22.3843C54.7463 22.3843 64.1978 31.8371 64.1978 43.4975Z" fill="url(#paint0_linear_2627_1361)"/>
<path fill-rule="evenodd" clip-rule="evenodd" d="M85.2714 31.365V1.67137H85.2761H111V85.3285H85.2761V55.6349C80.0206 73.7544 63.3088 87 43.4969 87C19.4722 87 0 67.5208 0 43.4975C0 19.4745 19.4722 0 43.4922 0C63.3044 0 80.0206 13.2453 85.2714 31.365ZM64.1978 43.4975C64.1978 55.1582 54.7463 64.6109 43.0873 64.6109C31.428 64.6109 21.9764 55.1582 21.9764 43.4975C21.9764 31.8371 31.428 22.3843 43.0873 22.3843C54.7463 22.3843 64.1978 31.8371 64.1978 43.4975Z" fill="url(#paint1_linear_2627_1361)" fill-opacity="0.4"/>
<defs>
<linearGradient id="paint0_linear_2627_1361" x1="48.8734" y1="23.5204" x2="16.8239" y2="80.2756" gradientUnits="userSpaceOnUse">
<stop stop-color="#6833EF"/>
<stop offset="1" stop-color="#E10482"/>
</linearGradient>
<linearGradient id="paint1_linear_2627_1361" x1="66.6456" y1="44.0847" x2="103.889" y2="65.7494" gradientUnits="userSpaceOnUse">
<stop stop-color="#6833EF" stop-opacity="0"/>
<stop offset="1" stop-color="#E10482"/>
</linearGradient>
</defs>
</svg>
