<svg xmlns="http://www.w3.org/2000/svg" width="64" height="64" viewBox="0 0 64 64">
    <path fill="#5e35b1" d="M156.575 181a5.2 5.2 0 0 1 0-7.762 5.669 5.669 0 0 0 .894-1.384 5.811 5.811 0 0 0-.075-1.739 5.11 5.11 0 0 1 3.832-6.6 2.8 2.8 0 0 0 2.292-2.293 5.109 5.109 0 0 1 6.6-3.832 5.819 5.819 0 0 0 1.739.075 5.674 5.674 0 0 0 1.385-.894 5.2 5.2 0 0 1 7.762 0 5.675 5.675 0 0 0 1.385.894 5.823 5.823 0 0 0 1.739-.075 5.109 5.109 0 0 1 6.6 3.832 2.8 2.8 0 0 0 2.293 2.292 5.109 5.109 0 0 1 3.832 6.6 5.819 5.819 0 0 0-.075 1.739 5.674 5.674 0 0 0 .894 1.385 5.2 5.2 0 0 1 0 7.762 5.676 5.676 0 0 0-.894 1.385 5.814 5.814 0 0 0 .075 1.739 5.109 5.109 0 0 1-3.832 6.6 2.8 2.8 0 0 0-2.292 2.292 5.109 5.109 0 0 1-6.6 3.832 5.817 5.817 0 0 0-1.739-.075 5.665 5.665 0 0 0-1.385.894 5.2 5.2 0 0 1-7.762 0 5.672 5.672 0 0 0-1.384-.894 5.805 5.805 0 0 0-1.739.075 5.11 5.11 0 0 1-6.6-3.832 2.8 2.8 0 0 0-2.292-2.292 5.109 5.109 0 0 1-3.832-6.6 5.818 5.818 0 0 0 .075-1.739 5.664 5.664 0 0 0-.896-1.385zm26.437 3.891h3.765v-3.886h-3.765zm0-11.658h3.765v-3.883h-3.765zm-7.469 15h3.765v-3.886h-3.765zm0-9.412h3.765v-3.886h-3.765zm0-9.473h3.765v-3.886h-3.765zm-7.529 15.545h3.765v-3.886h-3.765zm0-11.658h3.765v-3.885h-3.765z" transform="translate(-154.838 -135.407)"/>
    <path fill="#4dd0e1" d="M17.6 24.56c-.9-2.157-1.863-4.095-4.124-5.4-2.346-1.358-4.641-1.136-6.727-.874C4.672 16.7 2.841 15.587.2 15.67c-.171-1.426-.476-3.056.378-4.531a6.424 6.424 0 0 1 3.401-2.457A5.747 5.747 0 0 0 5.491 7.9a5.749 5.749 0 0 0 .781-1.512 6.424 6.424 0 0 1 2.456-3.404 6.382 6.382 0 0 1 4.141-.427 5.809 5.809 0 0 0 1.739.074 5.673 5.673 0 0 0 1.384-.894A6.471 6.471 0 0 1 19.874 0a6.471 6.471 0 0 1 3.881 1.737 5.669 5.669 0 0 0 1.385.894 5.808 5.808 0 0 0 1.739-.074 6.383 6.383 0 0 1 4.141.427 6.423 6.423 0 0 1 2.457 3.406 5.749 5.749 0 0 0 .781 1.51 5.745 5.745 0 0 0 1.512.781 6.424 6.424 0 0 1 3.406 2.457 6.381 6.381 0 0 1 .424 4.142 5.813 5.813 0 0 0-.074 1.739 5.671 5.671 0 0 0 .894 1.384 6.471 6.471 0 0 1 1.737 3.881 6.471 6.471 0 0 1-1.737 3.881 5.67 5.67 0 0 0-.894 1.384 5.81 5.81 0 0 0 .074 1.739 6.383 6.383 0 0 1-.427 4.141 6.424 6.424 0 0 1-3.406 2.457 5.753 5.753 0 0 0-1.512.781 5.745 5.745 0 0 0-.781 1.512 6.424 6.424 0 0 1-2.457 3.406c-1.457.843-3.065.553-4.532.378.082-2.627-1.04-4.5-2.612-6.552.289-2.32.435-4.464-.874-6.727-1.331-2.3-3.343-3.263-5.4-4.125zm1.97-15.148h-3.764V13.3h3.764zm9.412 17.063h3.765v-3.887h-3.765zm-3.765-9.412h3.765v-3.887h-3.764z" transform="translate(21.841)"/>
</svg>
